<svg width="56" height="56" viewBox="0 0 56 56" fill="none" xmlns="http://www.w3.org/2000/svg">
<rect width="56" height="56" fill="#069791"/>
<path d="M39.4302 11.009C39.299 10.997 39.1677 10.997 39.0365 11.009H38.96L21.541 15.3829C20.4891 15.5753 19.7302 16.5004 19.7477 17.5698V38.1489C18.756 37.5573 17.622 37.2468 16.4673 37.2523C13.4494 37.2523 11 39.2096 11 41.6261C11 44.0427 13.4494 46 16.4673 46C19.4853 46 21.9347 44.0427 21.9347 41.6261V24.1962L39.4302 19.8224V33.775C38.4384 33.1835 37.3045 32.8729 36.1498 32.8784C33.1318 32.8784 30.6824 34.8357 30.6824 37.2523C30.6824 39.6688 33.1318 41.6261 36.1498 41.6261C39.1677 41.6261 41.6171 39.6688 41.6171 37.2523V13.196C41.6171 11.9877 40.6385 11.009 39.4302 11.009Z" fill="#FFFCF2"/>
</svg>
