<svg width="56" height="56" viewBox="0 0 56 56" fill="none" xmlns="http://www.w3.org/2000/svg">
<rect width="56" height="56" fill="#ED5212"/>
<g clip-path="url(#clip0_653_1567)">
<path d="M40.6379 41.0394C39.1391 42.7026 36.812 43.3873 35.0349 42.7861C32.0245 41.7678 30.429 39.0212 31.1675 34.9151C31.1671 34.9151 31.1679 34.9151 31.1675 34.9151C31.7897 36.9886 34.2317 37.9347 36.073 36.8132C37.6625 35.845 39.0924 34.0269 37.5045 30.7424C36.6191 28.9109 35.1537 28.9765 34.2295 30.7888C33.5754 32.0717 32.6744 33.0685 31.2409 33.3503C30.0951 33.5755 29.1531 33.7468 28.003 33.8506C27.9996 33.8436 28.046 33.9713 28.119 34.0814C28.9048 35.2662 29.1 36.4094 29.2707 37.8169C29.6639 41.0572 28.0905 43.8339 25.1633 44.9643C21.1471 46.5151 15.7868 44.7493 13.244 38.9955C12.6347 37.6169 12.25 31.0549 12.25 31.0549C13.1718 33.962 14.8665 43.4619 23.6367 40.7398C25.5769 40.1376 26.8199 37.6532 26.2978 35.7023C25.9027 34.226 24.5586 33.3719 22.8346 33.546C22.1464 33.6155 21.4668 33.7697 20.7103 33.8977C20.171 32.2635 19.6281 30.6181 19.0521 28.8723C19.2982 28.9214 19.4656 28.9505 19.631 28.9885C20.2396 29.1284 20.8459 29.2179 21.4491 29.2366C22.854 29.28 23.9471 28.0276 23.6931 26.6453C23.451 25.3275 22.0895 24.5168 20.826 24.9626C19.9642 25.2667 19.1436 25.7005 18.324 26.1348C17.9152 26.3513 17.5229 26.599 17.0478 26.8763L15.1426 22.874C16.9072 21.6038 18.7936 20.7529 20.9127 20.5096C21.7031 20.4188 22.5205 20.4076 23.3122 20.4923C26.0715 20.7874 27.9954 23.1245 27.7381 25.8876C27.547 27.9397 26.5222 29.4754 24.9478 30.692C24.8197 30.7909 24.6886 30.8859 24.5608 30.985C24.544 30.9981 24.538 31.025 24.5215 31.0558C24.9424 31.2954 25.3512 31.5596 25.7863 31.7726C25.9647 31.86 28.1645 32.276 28.9719 31.0801C29.7461 29.9332 30.3286 28.6558 30.9822 27.4288C30.9918 27.4109 31.0013 27.3931 31.011 27.3754C32.7376 24.1946 37.2153 23.9071 39.473 26.7358C40.4157 27.917 41.2512 29.663 41.6197 32.2422C42.6096 39.1693 41.1133 40.3155 40.6379 41.0394Z" fill="#FFEE00"/>
<path d="M25.3707 12.7452C28.9127 18.9649 34.8239 19.5142 40.0936 14.0252C41.1205 15.3545 42.1404 16.6747 43.2027 18.0498C41.0523 19.8578 38.6718 21.0773 35.9185 21.5185C33.7329 21.8687 31.5938 21.7435 29.6333 20.6184C26.5961 18.8755 25.6205 15.9849 25.3707 12.7452Z" fill="#FFEE00"/>
<path d="M35.454 12.7985C35.454 14.0729 34.4223 15.097 33.1555 15.097C31.8811 15.097 30.857 14.0729 30.857 12.7985C30.857 11.5317 31.8811 10.5 33.1555 10.5C34.4223 10.5 35.454 11.5317 35.454 12.7985Z" fill="#FFEE00"/>
</g>
<defs>
<clipPath id="clip0_653_1567">
<rect width="35" height="35" fill="white" transform="translate(10.5 10.5)"/>
</clipPath>
</defs>
</svg>
