<svg width="56" height="56" viewBox="0 0 56 56" fill="none" xmlns="http://www.w3.org/2000/svg">
<rect width="56" height="56" fill="#FBB908"/>
<path d="M28.2419 11.136C19.8297 11.136 13 18.9289 13 28.5404C13 38.1519 19.8297 45.9435 28.2419 45.9435C36.6541 45.9435 43.4839 38.1519 43.4839 28.5404C43.4839 18.9289 36.6593 11.136 28.2419 11.136Z" fill="#864327"/>
<path d="M28.2199 45.9948C28.0523 45.9725 27.8865 45.9382 27.7238 45.8922C27.5601 45.8485 27.4081 45.7856 27.247 45.7304C26.936 45.6082 26.6345 45.4632 26.345 45.2967C26.2019 45.2107 26.0524 45.1285 25.9133 45.04C25.7741 44.9514 25.6285 44.8423 25.4996 44.7448C25.4313 44.696 25.3617 44.6472 25.296 44.5959L25.1001 44.4329C24.9713 44.3238 24.8424 44.216 24.7136 44.1031C23.7388 43.1835 22.9294 42.1043 22.3206 40.9125L21.8902 40.0141C21.7729 39.7048 21.6531 39.3981 21.5461 39.0862L21.3837 38.6203C21.3335 38.4638 21.3 38.302 21.2549 38.1442C21.1737 37.8259 21.1015 37.5025 21.0319 37.188C20.9946 37.0291 20.9674 36.8679 20.9508 36.7055C20.9301 36.5425 20.9082 36.3821 20.8915 36.2191C20.8541 35.8956 20.8258 35.5709 20.8026 35.2475C20.7794 34.9241 20.8026 34.5943 20.8193 34.267L20.8464 33.7793C20.8644 33.615 20.8734 33.4533 20.8979 33.2903L21.0087 33.2723L21.3953 35.1153L21.644 36.0265L21.7639 36.4809L21.8244 36.708C21.8451 36.7838 21.8734 36.8556 21.8979 36.9314L22.1994 37.8233C22.251 37.9709 22.2974 38.1211 22.3528 38.2661L22.5358 38.6973L22.9005 39.5624L23.3218 40.4004C23.8875 41.5162 24.584 42.5614 25.3965 43.514C25.8057 43.9871 26.2512 44.4278 26.729 44.8321C27.196 45.2461 27.7118 45.6021 28.265 45.8922L28.2199 45.9948Z" fill="#6E3620"/>
<path d="M25.0306 31.174C25.2304 32.5023 25.3618 33.7767 25.5074 35.0371C25.653 36.2974 25.8064 37.5295 25.9997 38.7487C26.0499 39.0516 26.0989 39.357 26.1608 39.6574C26.2226 39.9577 26.2896 40.258 26.3373 40.5557C26.4662 41.1551 26.6169 41.7468 26.7806 42.341C26.9443 42.9352 27.1453 43.5166 27.3618 44.1095C27.479 44.3996 27.5899 44.6999 27.72 44.9951C27.7819 45.1452 27.8489 45.298 27.9159 45.443C27.9829 45.588 28.0551 45.7433 28.1182 45.9024L28.0344 45.9769C27.5956 45.4927 27.1982 44.9728 26.8463 44.4227C26.5077 43.8639 26.2093 43.2819 25.9533 42.6811C25.7058 42.0772 25.4933 41.4597 25.3167 40.8317C25.1449 40.2028 25.0044 39.5667 24.8953 38.9232C24.6975 37.6365 24.6023 36.3362 24.6105 35.0345C24.6105 34.3838 24.6363 33.7344 24.684 33.0863C24.7317 32.4381 24.8129 31.7939 24.9211 31.1509L25.0306 31.174Z" fill="#6E3620"/>
<path d="M15.616 32.4638C15.674 32.6692 15.7268 32.8745 15.7925 33.076C15.8582 33.2775 15.9111 33.479 15.9768 33.6779L16.1701 34.2709C16.241 34.4659 16.299 34.6623 16.3827 34.8535C16.4201 34.9498 16.451 35.0473 16.4858 35.1423L16.5953 35.4285C16.6662 35.6197 16.7487 35.8071 16.8286 35.9932C16.9085 36.1793 16.9922 36.3641 17.0708 36.5489C17.1494 36.7337 17.2461 36.9109 17.3286 37.0931C17.999 38.5095 18.8667 39.8247 19.9058 40.9998C20.9575 42.1529 22.1868 43.132 23.5475 43.9003C24.9315 44.6922 26.4585 45.2967 28.0783 45.8883L28.0654 45.9987C27.6479 45.9384 27.2265 45.8909 26.8103 45.819L26.1879 45.6907L25.8761 45.6278C25.773 45.6034 25.6712 45.5739 25.5694 45.5469L24.956 45.3775C24.7524 45.3223 24.5552 45.2415 24.3542 45.176L24.0539 45.0708L23.9032 45.0182L23.7576 44.9553L23.1725 44.6986C21.6193 43.9971 20.2253 42.9889 19.0747 41.7352C17.9493 40.4615 17.0706 38.9911 16.4832 37.3985C15.8822 35.816 15.5499 34.1448 15.5 32.4536L15.616 32.4638Z" fill="#6E3620"/>
<path d="M27.9068 45.8922C28.3073 45.6842 28.6863 45.4375 29.0382 45.1555L29.305 44.9476L29.5627 44.7269C29.7379 44.5844 29.8952 44.4214 30.0601 44.2674C30.7016 43.6306 31.2803 42.934 31.7882 42.187L32.1657 41.6236C32.2946 41.4362 32.3977 41.2386 32.5137 41.0422C32.7533 40.6572 32.9466 40.2478 33.158 39.8448C33.2662 39.6458 33.3487 39.4341 33.4402 39.2274L33.7108 38.6037C33.8796 38.184 34.0355 37.7579 34.1979 37.3344L34.3049 37.3678C34.319 37.4961 34.319 37.6129 34.3255 37.7361V38.1006C34.3255 38.3445 34.31 38.5862 34.2791 38.8257C34.2417 39.0606 34.1992 39.2968 34.1502 39.5316C34.1283 39.6497 34.0987 39.7665 34.0716 39.8833C34.0458 39.9999 34.0127 40.1148 33.9724 40.2272C33.833 40.687 33.6563 41.1346 33.444 41.5658C33.3938 41.6749 33.3358 41.7814 33.2817 41.888C33.2276 41.9945 33.1734 42.1036 33.109 42.2063L32.7224 42.8184C32.1681 43.6235 31.4826 44.3306 30.6941 44.9104C30.5962 44.9836 30.4918 45.0503 30.39 45.1183C30.2883 45.1878 30.1829 45.2516 30.0743 45.3095C29.966 45.3699 29.8604 45.4315 29.7508 45.4867C29.6413 45.5418 29.5253 45.5919 29.4119 45.6407C29.2987 45.6895 29.183 45.7323 29.0653 45.769C28.9484 45.8119 28.8292 45.8484 28.7083 45.8781C28.5795 45.9063 28.4674 45.9384 28.3424 45.9577C28.2171 45.9787 28.0905 45.9907 27.9635 45.9936L27.9068 45.8922Z" fill="#6E3620"/>
<path d="M30.5409 34.3363C30.595 34.8394 30.622 35.3412 30.6375 35.8456C30.653 36.35 30.6375 36.8531 30.6195 37.3562C30.5817 38.364 30.4793 39.3684 30.3128 40.3632C30.1351 41.3581 29.873 42.3361 29.5293 43.2868C29.354 43.761 29.1531 44.2255 28.9275 44.6781C28.693 45.1265 28.4304 45.5599 28.1414 45.9756L28.0486 45.9127C28.0706 45.7767 28.1041 45.656 28.1311 45.5277C28.1582 45.3993 28.1917 45.271 28.2175 45.1516L28.3837 44.4175C28.4868 43.9324 28.5924 43.4627 28.6852 42.9904C28.8747 42.0509 29.0422 41.1179 29.211 40.1771C29.3798 39.2364 29.5422 38.2867 29.7264 37.3215C29.9102 36.3212 30.1451 35.3308 30.43 34.3543L30.5409 34.3363Z" fill="#6E3620"/>
<path d="M40.6682 32.4638C40.6222 34.1655 40.3029 35.8488 39.7224 37.4499C39.1568 39.0619 38.2951 40.5551 37.1812 41.8533C36.6087 42.4882 35.9718 43.0624 35.2805 43.5666L34.7508 43.9298C34.5717 44.0453 34.3836 44.1467 34.2006 44.2571C34.1078 44.3097 34.0163 44.3662 33.9222 44.4162L33.6349 44.5574C33.4416 44.6498 33.2483 44.7512 33.0576 44.8346C32.6594 44.9899 32.2689 45.167 31.8591 45.2851C31.6543 45.348 31.4532 45.4199 31.2483 45.4751L30.6259 45.6278L30.3154 45.7022L29.9996 45.7548L29.3695 45.8614C29.2651 45.8819 29.1595 45.8922 29.0525 45.9024L28.7355 45.9345L28.1002 46L28.0912 45.8883C29.7432 45.3531 31.2934 44.7872 32.6929 44.0184C33.3776 43.6345 34.0316 43.1986 34.649 42.7144C34.7289 42.6567 34.8011 42.5861 34.8745 42.5296L35.0962 42.341L35.3178 42.1523L35.5253 41.9495C35.814 41.6928 36.0743 41.4015 36.3359 41.1179C37.368 39.9214 38.2233 38.5843 38.8757 37.147C39.2243 36.4071 39.5339 35.6498 39.8036 34.8779C40.0896 34.0976 40.319 33.2929 40.5561 32.4638H40.6682Z" fill="#6E3620"/>
<path d="M27.948 11C28.0932 11.0125 28.2374 11.0344 28.3797 11.0655C28.5228 11.0963 28.6568 11.1425 28.7972 11.1822C28.9351 11.2246 29.0706 11.2743 29.2032 11.3311C29.335 11.3839 29.464 11.4435 29.5898 11.5095C29.7186 11.575 29.8475 11.6379 29.9763 11.711C30.1052 11.7842 30.2186 11.8612 30.341 11.9382C30.4016 11.9767 30.4634 12.0139 30.5227 12.055C30.582 12.096 30.6374 12.1397 30.6941 12.1833C30.8088 12.2693 30.9235 12.3553 31.0356 12.44C31.9164 13.1727 32.6666 14.0483 33.2546 15.0299C33.3925 15.2763 33.533 15.5215 33.6683 15.7705C33.7353 15.8988 33.7855 16.0271 33.8461 16.1555C33.9067 16.2838 33.9608 16.4122 34.0136 16.5405C34.1281 16.7966 34.2271 17.0593 34.31 17.3272C34.3951 17.5942 34.4724 17.8624 34.5458 18.1319C34.5863 18.2653 34.6177 18.4012 34.6399 18.5388C34.6657 18.6761 34.6927 18.8134 34.7134 18.9508C34.7597 19.2254 34.7971 19.5013 34.8306 19.7773C34.8641 20.0532 34.8577 20.3368 34.8538 20.6179L34.8461 21.0376C34.8358 21.1788 34.8319 21.3187 34.8139 21.4598L34.7056 21.4868C34.5536 20.9734 34.4092 20.46 34.2533 19.9557L33.9891 19.2023L33.8603 18.8263C33.8384 18.7647 33.8178 18.6979 33.7933 18.6389L33.716 18.4554C33.5033 17.9689 33.3178 17.4697 33.0652 17.0025C32.9428 16.7664 32.8307 16.5251 32.7018 16.2941L32.2985 15.6075C31.7574 14.6952 31.1197 13.8433 30.3964 13.0663C30.2083 12.8789 30.033 12.6813 29.8307 12.5067L29.5369 12.2398C29.4364 12.1525 29.3307 12.0729 29.2289 11.9831C28.8216 11.6438 28.3782 11.3499 27.9068 11.1065L27.948 11Z" fill="#6E3620"/>
<path d="M31.14 25.826C30.9403 24.4964 30.8089 23.2219 30.6633 21.9629C30.5176 20.7039 30.3643 19.4705 30.171 18.2513C30.122 17.9471 30.0731 17.6429 30.0112 17.3426C29.9493 17.0423 29.8888 16.742 29.8334 16.4442C29.7045 15.8462 29.5537 15.2532 29.3914 14.6603C29.229 14.0673 29.0254 13.4847 28.8089 12.8917C28.6916 12.6004 28.5808 12.3001 28.452 12.0049C28.3901 11.856 28.3231 11.702 28.2548 11.5583C28.1865 11.4145 28.1169 11.2567 28.0538 11.0924L28.1375 11.0179C28.576 11.5029 28.9734 12.0232 29.3257 12.5734C29.6644 13.132 29.9624 13.714 30.2174 14.315C30.4653 14.9184 30.6783 15.5355 30.8553 16.1632C31.0271 16.7937 31.1671 17.4299 31.2754 18.0716C31.4718 19.3589 31.5658 20.6596 31.5563 21.9616C31.5563 22.611 31.5314 23.26 31.4815 23.9086C31.4261 24.5503 31.3527 25.2022 31.2457 25.8452L31.14 25.826Z" fill="#6E3620"/>
<path d="M40.5561 24.5362C40.4981 24.3308 40.444 24.1255 40.3783 23.924C40.3126 23.7225 40.261 23.5197 40.1902 23.3208L39.9969 22.7266C39.926 22.5315 39.868 22.3415 39.7855 22.1439C39.7482 22.0489 39.7159 21.9514 39.6812 21.8551L39.5716 21.5689C39.5007 21.3777 39.4196 21.1916 39.3397 21.0042C39.2598 20.8168 39.176 20.6346 39.0961 20.4498C39.0162 20.265 38.9221 20.0879 38.8384 19.9056C38.167 18.4917 37.2994 17.1788 36.2611 16.0053C35.2091 14.8526 33.9799 13.8735 32.6195 13.1048C31.2368 12.3078 29.7097 11.702 28.0886 11.1104L28.1015 11C28.5203 11.0603 28.9404 11.1078 29.3579 11.1797L29.9803 11.308L30.2909 11.3709C30.394 11.3953 30.4958 11.4248 30.5989 11.4518L31.211 11.6199C31.4159 11.6764 31.613 11.7559 31.8141 11.8227L32.1143 11.9279L32.2638 11.9805L32.4107 12.0434L32.9944 12.2924C34.5489 12.9931 35.9447 14.0004 37.0974 15.2532C38.2225 16.5274 39.1015 17.9976 39.6902 19.5899C40.2901 21.1732 40.6223 22.8446 40.6734 24.5362H40.5561Z" fill="#6E3620"/>
<path d="M28.2639 11.1065C27.8381 11.3294 27.4361 11.5947 27.0642 11.8984C26.9714 11.9728 26.8747 12.0447 26.7819 12.1217L26.5113 12.3591C26.3258 12.5131 26.1608 12.689 25.9869 12.8545C25.3141 13.5437 24.7123 14.2983 24.1905 15.1069L23.8039 15.7153C23.675 15.9193 23.5681 16.1349 23.4482 16.3441C23.2034 16.7587 23.0127 17.2015 22.8039 17.6353C22.6944 17.8496 22.6145 18.0767 22.523 18.3001L22.2537 18.97C22.0887 19.4231 21.9354 19.8812 21.7769 20.3368L21.6686 20.306C21.6532 20.1777 21.6519 20.0494 21.6442 19.921V19.536C21.6442 19.2793 21.6583 19.0226 21.6841 18.7659C21.7099 18.5093 21.7601 18.2641 21.813 18.0151C21.8349 17.8868 21.8632 17.7662 21.8903 17.6417C21.9157 17.5171 21.9484 17.3941 21.9882 17.2733C22.1255 16.7821 22.3013 16.3023 22.514 15.8385C22.5642 15.7217 22.6235 15.6087 22.6789 15.4932C22.7343 15.3777 22.7885 15.2609 22.8542 15.1518L23.255 14.4935C23.823 13.6252 24.533 12.8578 25.3554 12.2231C25.4598 12.1435 25.568 12.0704 25.6737 11.9959C25.7796 11.9193 25.8898 11.8486 26.0036 11.7842C26.1183 11.7187 26.2291 11.6558 26.3438 11.5891C26.4585 11.5223 26.5796 11.4736 26.6982 11.4184C26.8166 11.3621 26.9379 11.312 27.0616 11.2682C27.1842 11.2189 27.3094 11.1761 27.4366 11.1399C27.5654 11.1078 27.6943 11.0706 27.8232 11.0462C27.9543 11.0223 28.0869 11.0068 28.2201 11L28.2639 11.1065Z" fill="#6E3620"/>
<path d="M25.6287 22.6624C25.5772 22.1657 25.5501 21.6524 25.5346 21.1544C25.5192 20.6564 25.5346 20.1469 25.5514 19.6438C25.5902 18.6356 25.6931 17.6308 25.8594 16.6355C26.0364 15.6409 26.2985 14.6632 26.6429 13.7132C26.8171 13.2383 27.0176 12.7735 27.2434 12.3207C27.4784 11.8729 27.7409 11.44 28.0294 11.0244L28.1222 11.0873C28.1003 11.2233 28.0668 11.344 28.041 11.4723C28.0152 11.6007 27.9805 11.729 27.9534 11.8496L27.7884 12.5838C27.6854 13.0689 27.5784 13.5386 27.4869 14.0096C27.2962 14.9504 27.13 15.8821 26.9611 16.8242C26.7923 17.7662 26.6287 18.7134 26.4457 19.6798C26.2621 20.68 26.0277 21.6704 25.7434 22.647L25.6287 22.6624Z" fill="#6E3620"/>
<path d="M15.5038 24.5362C15.5492 22.834 15.8686 21.1502 16.4497 19.5488C17.015 17.9367 17.8768 16.4434 18.9909 15.1454C19.5637 14.5127 20.2007 13.9407 20.8916 13.4385L21.42 13.0766C21.5991 12.9611 21.7872 12.8584 21.9715 12.7493C22.0643 12.6954 22.1545 12.6402 22.2485 12.5889L22.5359 12.4413C22.7279 12.3502 22.9161 12.2488 23.1132 12.1653C23.5101 12.0088 23.9006 11.8329 24.3116 11.7149C24.5152 11.652 24.7163 11.5788 24.9225 11.5236L25.5436 11.3709L25.8554 11.2965L26.1698 11.2438L26.8 11.1386C26.9057 11.1181 27.0113 11.1078 27.117 11.0975L27.4327 11.0655L28.077 11L28.086 11.1117C26.4289 11.6417 24.8786 12.2128 23.4792 12.9816C22.7918 13.3645 22.1356 13.8005 21.5166 14.2855C21.438 14.342 21.3645 14.4062 21.2911 14.4704L21.0694 14.659L20.8478 14.8502L20.6403 15.0543C20.3517 15.3084 20.0875 15.5972 19.8298 15.877C18.7974 17.0758 17.9425 18.4156 17.2912 19.8556C16.9432 20.5952 16.6348 21.3526 16.3672 22.1246C16.0812 22.905 15.8518 23.7097 15.616 24.5387L15.5038 24.5362Z" fill="#6E3620"/>
<path d="M27.9289 45.8049C27.3324 45.2911 26.7865 44.7216 26.2988 44.1044C25.8045 43.4919 25.3496 42.8489 24.9367 42.1793C24.1189 40.8301 23.4534 39.3951 22.9522 37.9004C21.9445 34.9062 21.5979 31.7207 21.7241 28.5828C21.8702 25.4343 22.4668 22.3227 23.496 19.3422C24.008 17.8515 24.6321 16.4014 25.3632 15.0042C26.0968 13.6133 26.9556 12.2916 27.9289 11.0552C26.9996 12.3206 26.1805 13.6628 25.4805 15.0671C24.7781 16.466 24.1816 17.9152 23.6957 19.4025C23.2099 20.8875 22.8225 22.4026 22.536 23.9381C22.2491 25.4739 22.073 27.0283 22.0089 28.5892C21.9347 30.1491 21.989 31.7124 22.1713 33.2634C22.359 34.8133 22.6912 36.3425 23.1635 37.8311C23.6358 39.3217 24.2719 40.7559 25.0604 42.1074C25.4527 42.7849 25.8879 43.4369 26.3632 44.0595C26.6003 44.3701 26.8495 44.6721 27.1106 44.9656C27.3669 45.2608 27.6401 45.541 27.9289 45.8049V45.8049Z" fill="#6E3620"/>
<path d="M28.2149 45.8049C28.5037 45.5438 28.7769 45.2661 29.0332 44.9732C29.2909 44.6832 29.5383 44.3837 29.7754 44.0748C30.2455 43.4583 30.6759 42.8128 31.0641 42.142C31.848 40.8031 32.4828 39.3829 32.9571 37.9068C33.9158 34.9549 34.2728 31.8401 34.1426 28.7496C34.0813 27.201 33.9216 25.6578 33.6645 24.1293C33.4182 22.6009 33.0822 21.0881 32.6581 19.5988C32.2316 18.108 31.6838 16.6542 31.0203 15.2519C30.3588 13.8468 29.5621 12.5087 28.6414 11.2567C29.6083 12.4816 30.4468 13.8019 31.144 15.1967C31.8359 16.5964 32.4112 18.0502 32.8643 19.5437C33.3159 21.0347 33.6685 22.5537 33.9197 24.0908C34.1874 25.6285 34.357 27.1815 34.4274 28.7406C34.4866 30.3018 34.4159 31.8652 34.2161 33.4148C34.0197 34.9659 33.6678 36.4935 33.1658 37.9748C32.6639 39.4545 32.0002 40.8748 31.1865 42.21C30.7759 42.8741 30.324 43.5119 29.8334 44.1198C29.3485 44.7311 28.8066 45.2953 28.2149 45.8049V45.8049Z" fill="#6E3620"/>
<path opacity="0.05" d="M13.7255 29.1372V29.1437C13.7266 29.3372 13.7681 29.5284 13.8473 29.7051C13.9265 29.8819 14.0417 30.0403 14.1856 30.1704C16.1739 31.9672 18.603 33.0131 21.2254 33.0131C27.9533 33.0131 33.4068 26.0827 33.4068 17.5442C33.4078 16.2759 33.2852 15.0105 33.0408 13.7658C32.9936 13.537 32.8902 13.3234 32.7397 13.1442C32.5892 12.965 32.3965 12.8258 32.1787 12.739C30.781 12.168 29.2849 11.8737 27.7742 11.8727C20.0166 11.8779 13.7255 19.6053 13.7255 29.1372Z" fill="white"/>
<path opacity="0.05" d="M25.8863 12.9251C21.6621 13.6104 18.1029 16.8819 16.2937 21.4021C16.1984 21.6398 16.1664 21.8981 16.201 22.1517C16.2355 22.4054 16.3354 22.6459 16.4909 22.8497C17.7022 24.4386 19.389 25.4243 21.2588 25.4243C24.9507 25.4243 27.9429 21.574 27.9429 16.8126C27.9452 15.8594 27.8217 14.9101 27.5757 13.9891C27.4769 13.6345 27.2492 13.3293 26.937 13.1326C26.6247 12.936 26.2502 12.862 25.8863 12.9251V12.9251Z" fill="white"/>
<path d="M25.8339 30.0541C26.2718 30.0541 26.6267 30.4093 26.6267 30.8469C26.6267 31.2848 26.2718 31.6397 25.8339 31.6397C25.3964 31.6397 25.0415 31.2848 25.0415 30.8469C25.0415 30.4093 25.3964 30.0541 25.8339 30.0541Z" fill="#E58D59"/>
<path d="M25.8339 24.3079C26.2718 24.3079 26.6267 24.6628 26.6267 25.1007C26.6267 25.5386 26.2718 25.8935 25.8339 25.8935C25.3964 25.8935 25.0415 25.5386 25.0415 25.1007C25.0415 24.6628 25.3964 24.3079 25.8339 24.3079Z" fill="#E58D59"/>
<path d="M31.63 24.3079C32.0676 24.3079 32.4228 24.6628 32.4228 25.1007C32.4228 25.5386 32.0676 25.8935 31.63 25.8935C31.1921 25.8935 30.8372 25.5386 30.8372 25.1007C30.8372 24.6628 31.1921 24.3079 31.63 24.3079Z" fill="#E58D59"/>
<path d="M31.63 30.0541C32.0676 30.0541 32.4228 30.4093 32.4228 30.8469C32.4228 31.2848 32.0676 31.6397 31.63 31.6397C31.1921 31.6397 30.8372 31.2848 30.8372 30.8469C30.8372 30.4093 31.1921 30.0541 31.63 30.0541Z" fill="#E58D59"/>
<path d="M36.8333 34.586H35.3333H34.5696C34.0793 34.586 33.6818 34.1885 33.6818 33.6985V28.8201H29.5675V33.8728C29.5675 34.2667 29.2482 34.5859 28.8544 34.5859H23.5949C23.2921 34.5859 23.0104 34.7406 22.8473 34.9958L22.1506 36.086V34.586V33.8223C22.1506 33.3323 22.5477 32.9348 23.038 32.9348H27.916V28.8201H22.8636C22.4698 28.8201 22.1506 28.5009 22.1506 28.1071V22.848C22.1506 22.5451 21.9958 22.263 21.7407 22.0999L20.6505 21.4032H22.1506H22.9139C23.4042 21.4032 23.8017 21.8007 23.8017 22.291V27.169H27.916V22.1163C27.916 21.7225 28.2356 21.4032 28.6294 21.4032H33.8885C34.1914 21.4032 34.4735 21.2489 34.6365 20.9934L35.3333 19.9032V21.4032V22.1669C35.3333 22.6572 34.9358 23.0547 34.4455 23.0547H29.5675V27.1691H34.6202C35.014 27.1691 35.3332 27.4883 35.3332 27.8821V33.1412C35.3332 33.4441 35.4876 33.7262 35.7427 33.8892L36.8333 34.586Z" fill="#E68D59"/>
</svg>
