<svg width="56" height="56" viewBox="0 0 56 56" fill="none" xmlns="http://www.w3.org/2000/svg">
<rect width="56" height="56" fill="#E53D03"/>
<path d="M39.1057 28.5L44.3333 19.2956H33.8781L29.1667 11L24.4552 19.2956H14L19.2276 28.5L14 37.7044H24.4552L29.1667 46L33.8781 37.7044H44.3333L39.1057 28.5ZM39.5479 22.1042L37.5105 25.6913L35.4732 22.1041H39.5479V22.1042ZM35.9154 28.5L32.2829 34.8958H26.0504L22.4179 28.5L26.0504 22.1042H32.283L35.9154 28.5ZM29.1667 16.6173L30.6878 19.2956H27.6456L29.1667 16.6173ZM18.7854 22.1042H22.8601L20.8228 25.6913L18.7854 22.1042ZM18.7854 34.8958L20.8228 31.3087L22.8601 34.8959H18.7854V34.8958ZM29.1667 40.3827L27.6456 37.7044H30.6878L29.1667 40.3827ZM37.5105 31.3087L39.5479 34.8959H35.4733L37.5105 31.3087Z" fill="#FFEC5F"/>
<path d="M44.3333 19.2958H33.8777L29.1666 11V16.6172L30.6878 19.2958H29.1666V22.1044H32.2832L35.9152 28.5L32.2832 34.8956H29.1666V37.7042H30.6878L29.1666 40.3828V46L33.8777 37.7042H44.3333L39.1059 28.5L44.3333 19.2958ZM35.4731 22.1044H39.548L37.5105 25.6914L35.4731 22.1044ZM39.548 34.8956H35.4731L37.5105 31.3086L39.548 34.8956Z" fill="#FFBE2E"/>
</svg>
