<svg width="56" height="56" viewBox="0 0 56 56" fill="none" xmlns="http://www.w3.org/2000/svg">
<rect width="56" height="56" fill="#532400"/>
<path d="M16.6207 39.3621H40.1552V44.1896H16.6207C15.2883 44.1896 14.2069 43.1083 14.2069 41.7759C14.2069 40.4434 15.2883 39.3621 16.6207 39.3621Z" fill="#FCE4D5"/>
<path d="M13 41.6371V15.2241C13 12.8888 14.8888 11 17.2241 11L17.8276 11.6034V36.9483L17.2241 38.1552L13 41.6371Z" fill="#B44805"/>
<path d="M40.7586 12.2069V38.1552H17.2241V11H39.5517C40.2155 11 40.7586 11.5431 40.7586 12.2069Z" fill="#F06A16"/>
<path d="M15.4138 41.8724C15.4681 42.85 16.3431 43.5862 17.3207 43.5862H40.1552C40.4871 43.5862 40.7586 43.8577 40.7586 44.1896V45.3965C40.7586 45.7284 40.4871 46 40.1552 46H17.3991C15.0457 46 13.0121 44.1172 13 41.7758V41.637C13.0362 40.5207 13.5009 39.525 14.2371 38.7888C15.0034 38.0224 16.0534 37.5517 17.2241 37.5517H40.7586V39.362C40.7586 39.6939 40.4871 39.9655 40.1552 39.9655H17.2241C16.1922 39.9655 15.3655 40.8224 15.4138 41.8724Z" fill="#F48844"/>
<path d="M36.2792 18.5663H21.6572C21.208 18.5663 20.8448 18.2966 20.8448 17.9629C20.8448 17.6292 21.208 17.3594 21.6572 17.3594H36.2792C36.7284 17.3594 37.0915 17.6292 37.0915 17.9629C37.0915 18.2966 36.7284 18.5663 36.2792 18.5663Z" fill="#FCE4D5"/>
<path d="M36.2792 22.0477H21.6572C21.208 22.0477 20.8448 21.778 20.8448 21.4443C20.8448 21.1106 21.208 20.8408 21.6572 20.8408H36.2792C36.7284 20.8408 37.0915 21.1106 37.0915 21.4443C37.0915 21.778 36.7284 22.0477 36.2792 22.0477Z" fill="#FCE4D5"/>
<path d="M36.2792 25.5292H21.6572C21.208 25.5292 20.8448 25.2594 20.8448 24.9257C20.8448 24.592 21.208 24.3223 21.6572 24.3223H36.2792C36.7284 24.3223 37.0915 24.592 37.0915 24.9257C37.0915 25.2594 36.7284 25.5292 36.2792 25.5292Z" fill="#FCE4D5"/>
</svg>
