<svg width="56" height="56" viewBox="0 0 56 56" fill="none" xmlns="http://www.w3.org/2000/svg">
<rect width="56" height="56" fill="#1D293F"/>
<path d="M27.4986 46C29.7839 46 31.6364 43.7382 31.6364 40.9482C31.6364 38.1581 29.7839 35.8963 27.4986 35.8963C25.2134 35.8963 23.3608 38.1581 23.3608 40.9482C23.3608 43.7382 25.2134 46 27.4986 46Z" fill="#FF9000"/>
<path d="M40.2182 36.5151H15.0135C15.0135 36.5151 15.5103 35.5319 16.0071 33.8653C16.653 31.7154 17.2989 28.3989 16.8849 24.5492C16.7855 23.4826 16.7689 22.3993 16.9179 21.3327C17.4644 18.0996 19.5345 12.2499 27.6159 12C35.6973 12.2499 37.7673 18.0996 38.2973 21.3327C38.4628 22.3993 38.4462 23.4826 38.3303 24.5492C37.9329 28.3823 38.5788 31.6988 39.2246 33.8653C39.7214 35.5319 40.2182 36.5151 40.2182 36.5151Z" fill="#FFDD33"/>
<path d="M40.2182 36.5151H15.0135C15.0565 36.3626 17.6176 31.3629 16.8849 24.5492C16.7855 23.4826 16.7689 22.3993 16.9179 21.3327C17.4644 18.0996 19.5345 12.2499 27.6159 12C28.4935 12.0333 29.2885 12.1167 30.0171 12.2666C23.8898 13.4666 22.1841 18.4496 21.7039 21.3327C21.5548 22.3993 21.5713 23.4826 21.6707 24.5492C21.6748 24.5877 21.6789 24.6261 21.6828 24.6645C22.2136 29.8504 26.4029 33.8653 31.5833 33.8653H39.2246C39.7214 35.5319 40.2182 36.5151 40.2182 36.5151Z" fill="#FFBB00"/>
<path d="M43.7953 41.3648H11.2047C10.2442 41.3648 9.66458 40.2648 10.2111 39.4649L11.1385 38.065C12.2149 36.4818 13.9869 35.5319 15.8913 35.5319H39.1088C41.0131 35.5319 42.7851 36.4818 43.845 38.065L44.7889 39.4649C45.3354 40.2648 44.7558 41.3648 43.7953 41.3648Z" fill="#FFDD33"/>
<path d="M14.3512 39.4649C13.8046 40.2648 14.3677 41.3648 15.3447 41.3648H11.2047C10.2442 41.3648 9.66458 40.2648 10.2111 39.4649L11.1385 38.065C12.2149 36.4818 13.9869 35.5319 15.8913 35.5319H20.0313C18.1269 35.5319 16.355 36.4818 15.2785 38.065L14.3512 39.4649Z" fill="#FFBB00"/>
</svg>
