<svg width="68" height="68" viewBox="0 0 68 68" fill="none" xmlns="http://www.w3.org/2000/svg">
<g filter="url(#filter0_dd_2238_7413)">
<rect x="6" y="4" width="56" height="56" rx="14" fill="#2A426C"/>
<path d="M41.3262 30.2606L36.8652 23.6518C36.8652 23.6518 34.6348 22.9083 34.6348 25.8823C34.6348 28.8562 37.6087 31.7476 37.6087 31.7476L39.8377 39.9205H45.0415L41.3262 30.2606Z" fill="#FFDABC"/>
<path d="M36.1197 25.8823C36.1197 24.6483 36.5038 24.0546 36.9531 23.782L36.8652 23.6518C36.8652 23.6518 34.6348 22.9083 34.6348 25.8823C34.6348 28.8562 37.6087 31.7476 37.6087 31.7476L39.8377 39.9205H41.3225L39.0936 31.7476C39.0936 31.7476 36.1197 28.8562 36.1197 25.8823Z" fill="#FFC190"/>
<path d="M44.3133 48.7566L46.5119 35.5649C46.5228 35.4994 46.516 35.4323 46.4922 35.3703L42.8263 25.839C42.8162 25.8128 42.8032 25.7878 42.7875 25.7645L38.3503 19.1908C38.3503 19.1908 36.1198 18.4473 36.1198 21.4212C36.1198 24.3952 39.0937 27.2865 39.0937 27.2865L41.2962 35.3622C41.3145 35.4293 41.3136 35.5002 41.2936 35.5668L39.0937 42.8997H34.6328V48.8476L37.6068 60H48.0156L44.3273 48.9353C44.3082 48.8778 44.3034 48.8164 44.3133 48.7566Z" fill="#FFE6D3"/>
<path d="M39.0931 27.2865L41.2956 35.3622C41.3139 35.4293 41.313 35.5002 41.293 35.5668L39.0931 42.8997H41.3236L43.5234 35.5668C43.5434 35.5002 43.5444 35.4293 43.526 35.3622L41.3236 27.2865C41.3236 27.2865 38.3496 24.3952 38.3496 21.4212C38.3496 20.6357 38.5053 20.1097 38.7343 19.7607L38.3496 19.1908C38.3496 19.1908 36.1191 18.4473 36.1191 21.4212C36.1191 24.3952 39.0931 27.2865 39.0931 27.2865Z" fill="#FFCEA6"/>
<path d="M36.8633 42.8998H34.6328V48.8477L37.6068 60H39.8372L36.8633 48.8477V42.8998Z" fill="#FFCEA6"/>
<path d="M39.0937 44.3867H34.6328V36.2084C34.6328 33.7446 36.63 31.7474 39.0937 31.7474V44.3867Z" fill="#FFE6D3"/>
<path d="M39.0937 32.3458V31.7474C36.63 31.7474 34.6328 33.7446 34.6328 36.2084V44.3867H36.8633V36.2084C36.8633 34.5574 37.7608 33.1171 39.0937 32.3458Z" fill="#FFCEA6"/>
<path d="M27.9399 30.2606L32.4008 23.6518C32.4008 23.6518 34.6313 22.9083 34.6313 25.8823C34.6313 28.8562 31.6573 31.7476 31.6573 31.7476L29.4284 39.9205H24.2246L27.9399 30.2606Z" fill="#FFDABC"/>
<path d="M33.1462 25.8823C33.1462 24.6483 32.7621 24.0546 32.3127 23.782L32.4007 23.6518C32.4007 23.6518 34.6311 22.9083 34.6311 25.8823C34.6311 28.8562 31.6572 31.7476 31.6572 31.7476L29.4282 39.9205H27.9434L30.1722 31.7476C30.1722 31.7476 33.1462 28.8562 33.1462 25.8823Z" fill="#FFC190"/>
<path d="M24.9522 48.7566L22.7536 35.5649C22.7427 35.4994 22.7495 35.4323 22.7733 35.3703L26.4392 25.839C26.4493 25.8128 26.4623 25.7878 26.478 25.7645L30.9153 19.1908C30.9153 19.1908 33.1458 18.4473 33.1458 21.4212C33.1458 24.3952 30.1719 27.2865 30.1719 27.2865L27.9694 35.3622C27.9511 35.4293 27.952 35.5002 27.972 35.5668L30.1719 42.8997H34.6328V48.8476L31.6588 60H21.25L24.9383 48.9353C24.9574 48.8778 24.9622 48.8164 24.9522 48.7566Z" fill="#FFE6D3"/>
<path d="M30.1726 27.2865L27.9701 35.3622C27.9518 35.4293 27.9527 35.5002 27.9727 35.5668L30.1726 42.8997H27.9421L25.7423 35.5668C25.7223 35.5002 25.7213 35.4293 25.7397 35.3622L27.9421 27.2865C27.9421 27.2865 30.9161 24.3952 30.9161 21.4212C30.9161 20.6357 30.7604 20.1097 30.5314 19.7607L30.9161 19.1908C30.9161 19.1908 33.1466 18.4473 33.1466 21.4212C33.1466 24.3952 30.1726 27.2865 30.1726 27.2865Z" fill="#FFCEA6"/>
<path d="M32.4036 42.8998H34.6341V48.8477L31.6602 60H29.4297L32.4036 48.8477V42.8998Z" fill="#FFCEA6"/>
<path d="M30.1719 44.3867H34.6328V36.2084C34.6328 33.7446 32.6356 31.7474 30.1719 31.7474V44.3867Z" fill="#FFE6D3"/>
<path d="M30.1719 32.3458V31.7474C32.6356 31.7474 34.6328 33.7446 34.6328 36.2084V44.3867H32.4023V36.2084C32.4023 34.5574 31.5049 33.1171 30.1719 32.3458Z" fill="#FFCEA6"/>
<path d="M34.6322 15.3907C34.2216 15.3907 33.8887 15.0578 33.8887 14.6472V13.1602C33.8887 12.7496 34.2216 12.4167 34.6322 12.4167C35.0428 12.4167 35.3756 12.7496 35.3756 13.1602V14.6472C35.3756 15.0578 35.0428 15.3907 34.6322 15.3907Z" fill="white"/>
<path d="M28.6851 16.9844C28.4281 16.9844 28.1782 16.851 28.0405 16.6125L27.297 15.3248C27.0917 14.9692 27.2135 14.5145 27.5691 14.3092C27.9248 14.1039 28.3794 14.2257 28.5847 14.5813L29.3282 15.869C29.5335 16.2246 29.4117 16.6793 29.0561 16.8846C28.9391 16.9523 28.8113 16.9844 28.6851 16.9844Z" fill="white"/>
<path d="M24.3295 21.3386C24.2034 21.3386 24.0755 21.3065 23.9584 21.2389L22.6707 20.4954C22.3151 20.2901 22.1933 19.8354 22.3986 19.4798C22.6038 19.1241 23.0586 19.0023 23.4142 19.2077L24.7019 19.9512C25.0575 20.1565 25.1793 20.6112 24.974 20.9668C24.8364 21.2053 24.5865 21.3386 24.3295 21.3386Z" fill="white"/>
<path d="M22.7363 27.2865H21.2493C20.8388 27.2865 20.5059 26.9536 20.5059 26.543C20.5059 26.1325 20.8388 25.7996 21.2493 25.7996H22.7363C23.1469 25.7996 23.4798 26.1325 23.4798 26.543C23.4798 26.9536 23.1469 27.2865 22.7363 27.2865Z" fill="white"/>
<path d="M48.0156 27.2865H46.5286C46.1181 27.2865 45.7852 26.9536 45.7852 26.543C45.7852 26.1325 46.1181 25.7996 46.5286 25.7996H48.0156C48.4262 25.7996 48.7591 26.1325 48.7591 26.543C48.7591 26.9536 48.4262 27.2865 48.0156 27.2865Z" fill="white"/>
<path d="M44.9357 21.3386C44.6788 21.3386 44.4289 21.2052 44.2911 20.9667C44.0858 20.6112 44.2077 20.1564 44.5632 19.9511L45.851 19.2076C46.2065 19.0023 46.6614 19.1242 46.8666 19.4798C47.0719 19.8353 46.95 20.2901 46.5945 20.4954L45.3067 21.2388C45.1897 21.3064 45.0619 21.3386 44.9357 21.3386Z" fill="white"/>
<path d="M40.5789 16.9844C40.4528 16.9844 40.3249 16.9523 40.2078 16.8847C39.8522 16.6794 39.7304 16.2247 39.9357 15.8691L40.6791 14.5814C40.8844 14.2257 41.3392 14.1039 41.6948 14.3093C42.0503 14.5146 42.1722 14.9693 41.9669 15.3249L41.2234 16.6126C41.0857 16.8511 40.8357 16.9844 40.5789 16.9844Z" fill="white"/>
</g>
<defs>
<filter id="filter0_dd_2238_7413" x="0.75" y="0.5" width="66.5" height="67.5" filterUnits="userSpaceOnUse" color-interpolation-filters="sRGB">
<feFlood flood-opacity="0" result="BackgroundImageFix"/>
<feColorMatrix in="SourceAlpha" type="matrix" values="0 0 0 0 0 0 0 0 0 0 0 0 0 0 0 0 0 0 127 0" result="hardAlpha"/>
<feMorphology radius="1.75" operator="erode" in="SourceAlpha" result="effect1_dropShadow_2238_7413"/>
<feOffset dy="1.75"/>
<feGaussianBlur stdDeviation="1.75"/>
<feColorMatrix type="matrix" values="0 0 0 0 0 0 0 0 0 0 0 0 0 0 0 0 0 0 0.1 0"/>
<feBlend mode="normal" in2="BackgroundImageFix" result="effect1_dropShadow_2238_7413"/>
<feColorMatrix in="SourceAlpha" type="matrix" values="0 0 0 0 0 0 0 0 0 0 0 0 0 0 0 0 0 0 127 0" result="hardAlpha"/>
<feOffset dy="1.75"/>
<feGaussianBlur stdDeviation="2.625"/>
<feColorMatrix type="matrix" values="0 0 0 0 0 0 0 0 0 0 0 0 0 0 0 0 0 0 0.1 0"/>
<feBlend mode="normal" in2="effect1_dropShadow_2238_7413" result="effect2_dropShadow_2238_7413"/>
<feBlend mode="normal" in="SourceGraphic" in2="effect2_dropShadow_2238_7413" result="shape"/>
</filter>
</defs>
</svg>
