<svg width="68" height="67" viewBox="0 0 68 67" fill="none" xmlns="http://www.w3.org/2000/svg">
<g filter="url(#filter0_dd_2238_7447)">
<rect x="6" y="4" width="56" height="56" rx="14" fill="#2A426C"/>
<path d="M50.1978 27.713L39.1851 26.6916L34.8105 16.5335C34.5042 15.8222 33.4957 15.8222 33.1895 16.5335L28.8149 26.6915L17.8022 27.713C17.0311 27.7845 16.7195 28.7436 17.3012 29.2547L25.6104 36.5541L23.1787 47.3435C23.0084 48.099 23.8243 48.6917 24.4902 48.2964L34 42.6496L43.5099 48.2964C44.1758 48.6918 44.9916 48.099 44.8214 47.3435L42.3896 36.5541L50.6988 29.2547C51.2805 28.7436 50.9689 27.7845 50.1978 27.713Z" fill="#FF9000"/>
<path d="M36.4012 20.2274L34.8104 16.5335C34.5041 15.8222 33.4957 15.8222 33.1894 16.5335L28.8148 26.6915L17.8022 27.713C17.0311 27.7845 16.7195 28.7436 17.3012 29.2547L25.6104 36.5541L23.1787 47.3435C23.0084 48.099 23.8243 48.6918 24.4902 48.2964L25.7559 47.5449C27.8308 34.113 33.6642 24.253 36.4012 20.2274Z" fill="#FFDD33"/>
</g>
<defs>
<filter id="filter0_dd_2238_7447" x="0.75" y="0.5" width="66.5" height="66.5" filterUnits="userSpaceOnUse" color-interpolation-filters="sRGB">
<feFlood flood-opacity="0" result="BackgroundImageFix"/>
<feColorMatrix in="SourceAlpha" type="matrix" values="0 0 0 0 0 0 0 0 0 0 0 0 0 0 0 0 0 0 127 0" result="hardAlpha"/>
<feMorphology radius="1.75" operator="erode" in="SourceAlpha" result="effect1_dropShadow_2238_7447"/>
<feOffset dy="1.75"/>
<feGaussianBlur stdDeviation="1.75"/>
<feColorMatrix type="matrix" values="0 0 0 0 0 0 0 0 0 0 0 0 0 0 0 0 0 0 0.1 0"/>
<feBlend mode="normal" in2="BackgroundImageFix" result="effect1_dropShadow_2238_7447"/>
<feColorMatrix in="SourceAlpha" type="matrix" values="0 0 0 0 0 0 0 0 0 0 0 0 0 0 0 0 0 0 127 0" result="hardAlpha"/>
<feOffset dy="1.75"/>
<feGaussianBlur stdDeviation="2.625"/>
<feColorMatrix type="matrix" values="0 0 0 0 0 0 0 0 0 0 0 0 0 0 0 0 0 0 0.1 0"/>
<feBlend mode="normal" in2="effect1_dropShadow_2238_7447" result="effect2_dropShadow_2238_7447"/>
<feBlend mode="normal" in="SourceGraphic" in2="effect2_dropShadow_2238_7447" result="shape"/>
</filter>
</defs>
</svg>
