<svg width="67" height="67" viewBox="0 0 67 67" fill="none" xmlns="http://www.w3.org/2000/svg">
<g filter="url(#filter0_dd_2238_7477)">
<rect x="5.5" y="4" width="56" height="56" rx="14" fill="#2A426C"/>
<path d="M33.5 13L29.0469 32L33.5 51C40.5319 51 46.6712 47.1795 49.9568 41.5014V22.4986C46.6712 16.8205 40.5319 13 33.5 13ZM33.5 34.2266C32.2705 34.2266 31.2734 33.2295 31.2734 32C31.2734 30.7705 32.2705 29.7734 33.5 29.7734C34.7295 29.7734 35.7266 30.7705 35.7266 32C35.7266 33.2295 34.7295 34.2266 33.5 34.2266Z" fill="#0082E0"/>
<path d="M49.9569 22.4985L35.428 30.887C35.6176 31.2143 35.7266 31.5944 35.7266 32C35.7266 32.4056 35.6176 32.7857 35.428 33.113L49.9569 41.5014C51.574 38.7063 52.5 35.4613 52.5 32C52.5 28.5387 51.574 25.2936 49.9569 22.4985Z" fill="#00AAE0"/>
<path d="M31.2734 32C31.2734 31.3651 31.5396 30.7925 31.966 30.3869L24.465 22.4985H17.0432C15.426 25.2936 14.5 28.5387 14.5 32C14.5 35.4613 15.426 38.7063 17.0432 41.5014H24.465L31.966 33.6131C31.5396 33.2075 31.2734 32.6349 31.2734 32Z" fill="#08BCF5"/>
<path d="M31.5721 33.113L17.0432 41.5015C20.3288 47.1795 26.4681 51 33.5001 51V34.2266C32.6761 34.2266 31.9571 33.7787 31.5721 33.113Z" fill="#00AAE0"/>
<path d="M33.5001 29.7734V13C26.4681 13 20.3288 16.8205 17.0432 22.4986L31.5721 30.887C31.9571 30.2214 32.6761 29.7734 33.5001 29.7734Z" fill="#00AAE0"/>
<path d="M33.5 24.207L30.1602 27.5469L33.5 30.8867C34.1149 30.8867 34.6133 31.3851 34.6133 32C34.6133 32.6149 34.1149 33.1133 33.5 33.1133L30.1602 36.4531L33.5 39.793C37.8038 39.793 41.293 36.3038 41.293 32C41.293 27.6962 37.8038 24.207 33.5 24.207Z" fill="#223558"/>
<path d="M32.3867 32C32.3867 31.3851 32.8851 30.8867 33.5 30.8867V24.207C29.1962 24.207 25.707 27.6962 25.707 32C25.707 36.3038 29.1962 39.793 33.5 39.793V33.1133C32.8851 33.1133 32.3867 32.6149 32.3867 32Z" fill="#223558"/>
<path d="M52.0635 23.1755C52.5597 22.3434 52.8888 21.291 52.9527 20.2497C52.9932 19.5813 52.8446 18.8797 52.5228 18.22C52.018 17.1836 51.151 16.6014 50.3133 16.0389C49.6882 15.6191 49.0975 15.2228 48.6799 14.6566L48.605 14.5556C48.3581 14.2233 48.0793 13.8467 48.0351 13.5303C47.9909 13.2103 47.701 12.9826 47.3842 13.001C47.0624 13.0232 46.8131 13.2903 46.8131 13.614V24.5811C46.2985 24.2685 45.6647 24.0765 44.9708 24.0765C43.2784 24.0765 41.9004 25.1806 41.9004 26.5382C41.9004 27.8959 43.2784 29 44.9708 29C46.6632 29 48.0412 27.8959 48.0412 26.5382V19.3647C48.9636 19.7179 50.473 20.6177 50.8881 22.7188C50.8108 22.8333 50.7371 22.9564 50.6511 23.0549C50.4263 23.3097 50.4509 23.6986 50.7064 23.9226C50.9594 24.1491 51.3475 24.122 51.5722 23.8672C51.7368 23.6801 51.8829 23.461 52.023 23.2321C52.0377 23.2149 52.0512 23.1964 52.0635 23.1755Z" fill="white"/>
</g>
<defs>
<filter id="filter0_dd_2238_7477" x="0.25" y="0.5" width="66.5" height="66.5" filterUnits="userSpaceOnUse" color-interpolation-filters="sRGB">
<feFlood flood-opacity="0" result="BackgroundImageFix"/>
<feColorMatrix in="SourceAlpha" type="matrix" values="0 0 0 0 0 0 0 0 0 0 0 0 0 0 0 0 0 0 127 0" result="hardAlpha"/>
<feMorphology radius="1.75" operator="erode" in="SourceAlpha" result="effect1_dropShadow_2238_7477"/>
<feOffset dy="1.75"/>
<feGaussianBlur stdDeviation="1.75"/>
<feColorMatrix type="matrix" values="0 0 0 0 0 0 0 0 0 0 0 0 0 0 0 0 0 0 0.1 0"/>
<feBlend mode="normal" in2="BackgroundImageFix" result="effect1_dropShadow_2238_7477"/>
<feColorMatrix in="SourceAlpha" type="matrix" values="0 0 0 0 0 0 0 0 0 0 0 0 0 0 0 0 0 0 127 0" result="hardAlpha"/>
<feOffset dy="1.75"/>
<feGaussianBlur stdDeviation="2.625"/>
<feColorMatrix type="matrix" values="0 0 0 0 0 0 0 0 0 0 0 0 0 0 0 0 0 0 0.1 0"/>
<feBlend mode="normal" in2="effect1_dropShadow_2238_7477" result="effect2_dropShadow_2238_7477"/>
<feBlend mode="normal" in="SourceGraphic" in2="effect2_dropShadow_2238_7477" result="shape"/>
</filter>
</defs>
</svg>
