<svg width="68" height="67" viewBox="0 0 68 67" fill="none" xmlns="http://www.w3.org/2000/svg">
<g filter="url(#filter0_dd_2238_7457)">
<rect x="6" y="4" width="56" height="56" rx="14" fill="#2A426C"/>
<g clip-path="url(#clip0_2238_7457)">
<path d="M21.6746 45L19 47.7479L21.6746 50H52V48V45H21.6746Z" fill="#FECBA5"/>
<path d="M19.877 40.7771V44.8126H48.134V40.7771C48.134 40.141 47.6184 39.6254 46.9823 39.6254H21.0286C20.3925 39.6254 19.877 40.141 19.877 40.7771Z" fill="white"/>
<path d="M16 45.9644V48.8483C16 49.4843 16.5156 50 17.1517 50H21.7675V44.8127H17.1517C16.5156 44.8127 16 45.3283 16 45.9644Z" fill="#FCBB8B"/>
<path d="M45.7016 40H20V45H48V41.1101C48 40.497 46.9709 40 45.7016 40Z" fill="#FFE6D3"/>
<path d="M19.6832 34.5788C20.3129 34.5788 20.8234 34.0726 20.8234 33.4483C20.8234 32.8239 20.3129 32.3177 19.6832 32.3177C19.0535 32.3177 18.543 32.8239 18.543 33.4483C18.543 34.0726 19.0535 34.5788 19.6832 34.5788Z" fill="#FECBA5"/>
<path d="M25.4352 22.1712C26.0649 22.1712 26.5754 21.665 26.5754 21.0407C26.5754 20.4163 26.0649 19.9102 25.4352 19.9102C24.8054 19.9102 24.2949 20.4163 24.2949 21.0407C24.2949 21.665 24.8054 22.1712 25.4352 22.1712Z" fill="#FECBA5"/>
<path d="M46.8883 32.378C47.518 32.378 48.0285 31.8718 48.0285 31.2475C48.0285 30.6231 47.518 30.1169 46.8883 30.1169C46.2585 30.1169 45.748 30.6231 45.748 31.2475C45.748 31.8718 46.2585 32.378 46.8883 32.378Z" fill="white"/>
<path d="M43.6151 30.9002C43.6149 30.8976 43.6148 30.8949 43.6146 30.8922C43.5333 29.766 43.3257 28.8097 42.9616 27.8861C42.9567 27.8722 42.9514 27.8583 42.9457 27.8445C42.9249 27.7943 40.8784 22.8015 41.8366 20.0575C41.923 19.81 41.8811 19.5357 41.7246 19.3253C41.5682 19.1148 41.3179 18.9959 41.0557 19.0071C40.9855 19.0101 39.5541 19.0896 38.0358 20.4254C36.7069 17.6837 36.4971 14.7708 36.4949 14.7391C36.477 14.4636 36.3166 14.2175 36.0719 14.0898C35.8271 13.9619 35.5336 13.9712 35.2973 14.1138C33.2002 15.3805 31.5803 16.9264 30.4823 18.7086C29.5958 20.1476 29.0492 21.737 28.8575 23.4328C28.7423 24.4514 28.7697 25.3829 28.8546 26.1655C28.8939 26.5281 28.5317 26.8007 28.1942 26.6626L26.1591 25.83C26.0204 25.7732 25.8686 25.7496 25.7206 25.7734C25.4091 25.8236 25.1663 26.0472 25.0832 26.3365C24.8985 26.9789 24.7602 27.5726 24.6603 28.1517C24.3127 30.1682 24.4549 32.2335 25.0715 34.1245C25.6914 36.0254 26.7612 37.6625 28.1651 38.8586C29.8243 40.2723 31.8336 40.9919 34.0246 40.9919C35.2337 40.9919 36.4981 40.7728 37.7894 40.3301C39.8378 39.6281 41.46 38.2374 42.4807 36.3086C43.3292 34.7055 43.7321 32.7847 43.6151 30.9002Z" fill="#FF9000"/>
<path d="M43.6152 30.8922C43.5339 29.766 43.3262 28.8097 42.9622 27.8861C42.9573 27.8722 42.952 27.8583 42.9463 27.8445C42.9255 27.7943 40.879 22.8015 41.8372 20.0575C41.9236 19.81 41.8817 19.5357 41.7252 19.3253C41.5688 19.1148 41.3185 18.9959 41.0563 19.0071C40.9939 19.0097 39.8588 19.0727 38.5425 20.0214C38.2699 20.2179 37.8844 20.1104 37.7533 19.801C36.6769 17.2591 36.4975 14.7684 36.4955 14.7391C36.4776 14.4636 36.3172 14.2175 36.0725 14.0898C35.8277 13.9619 35.5342 13.9712 35.2979 14.1138C34.8799 14.3663 34.4812 14.63 34.1016 14.9043V40.9911C35.2874 40.9821 36.5257 40.7635 37.79 40.3301C39.8384 39.6281 41.4606 38.2374 42.4813 36.3086C43.3297 34.7054 43.7326 32.7846 43.6157 30.9C43.6155 30.8976 43.6154 30.8949 43.6152 30.8922Z" fill="#FF4B00"/>
<path d="M36.1941 27.7076C35.9942 27.4094 35.6186 27.283 35.2793 27.4004C34.94 27.5175 34.7222 27.8485 34.749 28.2065C34.8432 29.4701 34.7169 33.1858 32.9594 33.6677C31.4633 34.0781 30.6652 33.3851 30.5877 33.3132C30.3938 33.1017 30.1089 33.0216 29.8293 33.0886C29.5478 33.1564 29.335 33.3823 29.2599 33.662C29.2449 33.7175 29.1127 34.2133 29.0569 34.5364C28.6993 36.6106 29.3774 38.6661 30.8265 39.9007C31.6765 40.6249 32.7017 40.9936 33.8162 40.9936C34.4242 40.9936 35.059 40.8838 35.7059 40.662C36.7484 40.3046 37.6398 39.5488 38.2836 38.4761C38.8222 37.5788 39.1354 36.5319 39.1429 35.6037C39.1623 33.2155 38.2528 30.7803 36.1941 27.7076Z" fill="#FFDD33"/>
<path d="M35.2806 27.4004C34.9413 27.5175 34.7235 27.8485 34.7503 28.2065C34.8176 29.1085 34.7722 31.2599 34.1016 32.5927V40.9848C34.6223 40.9561 35.1603 40.8495 35.7072 40.662C36.7497 40.3046 37.6411 39.5488 38.2849 38.4761C38.8235 37.5788 39.1367 36.5319 39.1442 35.6037C39.1635 33.2155 38.2541 30.7803 36.1954 27.7076C35.9955 27.4094 35.62 27.283 35.2806 27.4004Z" fill="#FFBB00"/>
<path d="M44 40H47C47.5523 40 48 40.4477 48 41V45H44V40Z" fill="#FECBA5"/>
</g>
</g>
<defs>
<filter id="filter0_dd_2238_7457" x="0.75" y="0.5" width="66.5" height="66.5" filterUnits="userSpaceOnUse" color-interpolation-filters="sRGB">
<feFlood flood-opacity="0" result="BackgroundImageFix"/>
<feColorMatrix in="SourceAlpha" type="matrix" values="0 0 0 0 0 0 0 0 0 0 0 0 0 0 0 0 0 0 127 0" result="hardAlpha"/>
<feMorphology radius="1.75" operator="erode" in="SourceAlpha" result="effect1_dropShadow_2238_7457"/>
<feOffset dy="1.75"/>
<feGaussianBlur stdDeviation="1.75"/>
<feColorMatrix type="matrix" values="0 0 0 0 0 0 0 0 0 0 0 0 0 0 0 0 0 0 0.1 0"/>
<feBlend mode="normal" in2="BackgroundImageFix" result="effect1_dropShadow_2238_7457"/>
<feColorMatrix in="SourceAlpha" type="matrix" values="0 0 0 0 0 0 0 0 0 0 0 0 0 0 0 0 0 0 127 0" result="hardAlpha"/>
<feOffset dy="1.75"/>
<feGaussianBlur stdDeviation="2.625"/>
<feColorMatrix type="matrix" values="0 0 0 0 0 0 0 0 0 0 0 0 0 0 0 0 0 0 0.1 0"/>
<feBlend mode="normal" in2="effect1_dropShadow_2238_7457" result="effect2_dropShadow_2238_7457"/>
<feBlend mode="normal" in="SourceGraphic" in2="effect2_dropShadow_2238_7457" result="shape"/>
</filter>
<clipPath id="clip0_2238_7457">
<rect width="36" height="36" fill="white" transform="translate(16 14)"/>
</clipPath>
</defs>
</svg>
