<svg width="56" height="56" viewBox="0 0 56 56" fill="none" xmlns="http://www.w3.org/2000/svg">
<rect width="56" height="56" fill="#E82C17"/>
<g clip-path="url(#clip0_104_1598)">
<path d="M30.7181 11.1196L32.2235 9.57291C32.6544 9.13016 33.404 9.33097 33.5558 9.92991L34.0861 12.0221C34.6107 14.0917 36.7395 15.3207 38.7941 14.7403L40.8712 14.1535C41.4658 13.9855 42.0145 14.5342 41.8465 15.1287L41.2596 17.2058C40.6791 19.2605 41.9082 21.3892 43.9778 21.9138L46.07 22.4442C46.669 22.596 46.8698 23.3455 46.427 23.7764L44.8803 25.2818C43.3503 26.771 43.3503 29.229 44.8803 30.7181L46.427 32.2234C46.8698 32.6544 46.669 33.4039 46.07 33.5557L43.9778 34.086C41.9082 34.6107 40.6792 36.7394 41.2596 38.794L41.8465 40.8711C42.0145 41.4657 41.4658 42.0144 40.8712 41.8464L38.7941 41.2596C36.7395 40.6791 34.6107 41.9081 34.0861 43.9778L33.5558 46.07C33.404 46.6689 32.6544 46.8697 32.2235 46.427L30.7181 44.8802C29.229 43.3502 26.7709 43.3502 25.2818 44.8802L23.7765 46.427C23.3455 46.8697 22.596 46.6689 22.4442 46.07L21.9139 43.9778C21.3893 41.9082 19.2605 40.6792 17.2059 41.2596L15.1288 41.8464C14.5342 42.0144 13.9855 41.4657 14.1535 40.8711L14.7404 38.794C15.3208 36.7394 14.0918 34.6107 12.0222 34.086L9.92997 33.5557C9.33104 33.4039 9.13022 32.6544 9.57297 32.2234L11.1197 30.7181C12.6497 29.2289 12.6497 26.7709 11.1197 25.2818L9.5729 23.7764C9.13015 23.3455 9.33096 22.596 9.9299 22.4442L12.0221 21.9138C14.0917 21.3892 15.3207 19.2605 14.7403 17.2058L14.1535 15.1287C13.9855 14.5342 14.5342 13.9855 15.1287 14.1535L17.2058 14.7403C19.2605 15.3208 21.3892 14.0918 21.9138 12.0221L22.4441 9.92991C22.596 9.33097 23.3455 9.13016 23.7764 9.57291L25.2818 11.1196C26.7709 12.6496 29.229 12.6496 30.7181 11.1196Z" fill="#FCE540"/>
<path d="M44.8802 25.2817L46.4269 23.7763C46.8697 23.3454 46.6688 22.5959 46.0699 22.4441L43.9777 21.9137C41.9081 21.3891 40.6791 19.2604 41.2596 17.2057L41.8464 15.1286C42.0144 14.5341 41.4657 13.9854 40.8712 14.1534L38.7941 14.7402C38.5341 14.8136 38.273 14.8579 38.014 14.8754C39.19 17.2053 39.8532 19.8382 39.8532 22.6264C39.8533 32.1168 32.1167 39.8533 22.6263 39.8533C19.8381 39.8533 17.2052 39.1901 14.8753 38.0141C14.8578 38.273 14.8135 38.5341 14.7401 38.7941L14.1533 40.8712C13.9853 41.4658 14.534 42.0145 15.1285 41.8465L17.2056 41.2596C19.2603 40.6791 21.389 41.9081 21.9136 43.9778L22.444 46.07C22.5958 46.6689 23.3453 46.8698 23.7762 46.427L25.2816 44.8803C26.7708 43.3503 29.2288 43.3503 30.7179 44.8803L32.2233 46.427C32.6542 46.8698 33.4037 46.6689 33.5555 46.07L34.0858 43.9778C34.6105 41.9082 36.7392 40.6791 38.7939 41.2596L40.871 41.8465C41.4655 42.0145 42.0142 41.4658 41.8462 40.8712L41.2594 38.7941C40.6789 36.7395 41.9079 34.6107 43.9775 34.0861L46.0697 33.5558C46.6686 33.404 46.8694 32.6544 46.4267 32.2235L44.88 30.7181C43.3502 29.2289 43.3502 26.7709 44.8802 25.2817Z" fill="#FFD15B"/>
<path d="M44.8802 25.2817L46.4269 23.7763C46.8697 23.3454 46.6688 22.5959 46.0699 22.4441L43.9777 21.9137C41.9081 21.3891 40.6791 19.2604 41.2596 17.2057L41.8464 15.1286C42.0144 14.5341 41.4657 13.9854 40.8712 14.1534L38.7941 14.7402C38.5341 14.8136 38.273 14.8579 38.014 14.8754C39.19 17.2053 39.8532 19.8382 39.8532 22.6264C39.8533 32.1168 32.1167 39.8533 22.6263 39.8533C19.8381 39.8533 17.2052 39.1901 14.8753 38.0141C14.8578 38.273 14.8135 38.5341 14.7401 38.7941L14.1533 40.8712C13.9853 41.4658 14.534 42.0145 15.1285 41.8465L17.2056 41.2596C19.2603 40.6791 21.389 41.9081 21.9136 43.9778L22.444 46.07C22.5958 46.6689 23.3453 46.8698 23.7762 46.427L25.2816 44.8803C26.7708 43.3503 29.2288 43.3503 30.7179 44.8803L32.2233 46.427C32.6542 46.8698 33.4037 46.6689 33.5555 46.07L34.0858 43.9778C34.6105 41.9082 36.7392 40.6791 38.7939 41.2596L40.871 41.8465C41.4655 42.0145 42.0142 41.4658 41.8462 40.8712L41.2594 38.7941C40.6789 36.7395 41.9079 34.6107 43.9775 34.0861L46.0697 33.5558C46.6686 33.404 46.8694 32.6544 46.4267 32.2235L44.88 30.7181C43.3502 29.2289 43.3502 26.7709 44.8802 25.2817Z" fill="#FEC83E"/>
<path d="M27.9999 40.6433C34.9827 40.6433 40.6433 34.9827 40.6433 27.9999C40.6433 21.0171 34.9827 15.3564 27.9999 15.3564C21.0171 15.3564 15.3564 21.0171 15.3564 27.9999C15.3564 34.9827 21.0171 40.6433 27.9999 40.6433Z" fill="#FDBA2D"/>
<path d="M35.5767 17.8774C37.1597 19.989 38.0977 22.612 38.0977 25.4542C38.0977 32.437 32.437 38.0977 25.4542 38.0977C22.612 38.0977 19.989 37.1597 17.8774 35.5767C20.1837 38.6528 23.8592 40.6433 27.9998 40.6433C34.9826 40.6433 40.6433 34.9826 40.6433 27.9998C40.6433 23.8592 38.6528 20.1837 35.5767 17.8774Z" fill="#FBA61E"/>
</g>
<defs>
<clipPath id="clip0_104_1598">
<rect width="37.3333" height="37.3333" fill="white" transform="translate(9.33333 9.33334)"/>
</clipPath>
</defs>
</svg>
