<svg width="56" height="56" viewBox="0 0 56 56" fill="none" xmlns="http://www.w3.org/2000/svg">
<rect width="56" height="56" fill="#440271"/>
<g clip-path="url(#clip0_104_1607)">
<path d="M9.33332 25.6439V26.3732C9.33332 34.2707 13.4064 39.9075 19.3955 42.582C21.0517 40.7282 24.2836 42.3135 28.0009 42.3135C31.7164 42.3135 34.947 40.7271 36.604 42.5794C42.589 39.9038 46.6667 34.2681 46.6667 26.3733V25.686L9.33332 25.6439Z" fill="#C800BE"/>
<path d="M27.9865 42.2923C27.9914 42.2923 27.9962 42.2924 28.001 42.2924C31.7165 42.2924 34.947 40.7059 36.6041 42.5582C42.5891 39.8826 46.6667 34.2469 46.6667 26.3521V25.6648L27.9865 25.6438L27.9865 42.2923Z" fill="#7A00CE"/>
<path d="M12.6566 28.4053C16.0272 29.6662 21.6418 30.4921 27.9999 30.4921C34.3581 30.4921 39.9727 29.6663 43.3433 28.4053C40.9036 26.7971 34.9534 24.0263 27.9999 24.0263C21.0464 24.0263 15.0962 26.7971 12.6566 28.4053Z" fill="#FFF39C"/>
<path d="M28 36.2124C28.6935 36.2124 29.2557 35.6632 29.2557 34.9857C29.2557 34.3081 28.6935 33.7589 28 33.7589C27.3065 33.7589 26.7443 34.3081 26.7443 34.9857C26.7443 35.6632 27.3065 36.2124 28 36.2124Z" fill="#FFDD33"/>
<path d="M36.5814 38.4577C37.2749 38.4577 37.837 37.9084 37.837 37.2309C37.837 36.5534 37.2749 36.0041 36.5814 36.0041C35.8879 36.0041 35.3257 36.5534 35.3257 37.2309C35.3257 37.9084 35.8879 38.4577 36.5814 38.4577Z" fill="#FF9000"/>
<path d="M19.4186 38.4577C20.1121 38.4577 20.6743 37.9084 20.6743 37.2309C20.6743 36.5534 20.1121 36.0041 19.4186 36.0041C18.7251 36.0041 18.1629 36.5534 18.1629 37.2309C18.1629 37.9084 18.7251 38.4577 19.4186 38.4577Z" fill="#FFDD33"/>
<path d="M27.9865 24.0263V30.4919C27.991 30.4919 27.9955 30.492 28 30.492C34.3582 30.492 39.9728 29.6662 43.3434 28.4051C40.9037 26.7969 34.9535 24.0261 28 24.0261C27.9955 24.0262 27.991 24.0263 27.9865 24.0263Z" fill="#FFDD33"/>
<path d="M27.9865 33.7589V36.2097C28.0571 36.2104 28.1286 36.2066 28.2006 36.1952C28.8853 36.087 29.3504 35.457 29.2396 34.7882C29.1389 34.1808 28.5977 33.7517 27.9865 33.7589Z" fill="#FF9000"/>
<path d="M46.6666 25.6439C46.6666 23.2749 40.0357 21.3027 31.388 20.8796H24.612C15.9728 21.3044 9.33332 23.2764 9.33332 25.6439C9.33332 26.6701 10.562 27.6216 12.6566 28.4052C15.0962 26.797 21.0464 25.6613 27.9999 25.6613C34.9534 25.6613 40.9036 26.797 43.3433 28.4052C45.4379 27.6216 46.6666 26.6701 46.6666 25.6439Z" fill="#F300B7"/>
<path d="M31.3879 20.8796H27.9863V25.6614H27.9999C34.9534 25.6614 40.9036 26.7971 43.3432 28.4053C45.4378 27.6217 46.6665 26.6701 46.6665 25.6439C46.6666 23.2749 40.0356 21.3027 31.3879 20.8796Z" fill="#B8008B"/>
<path d="M28 27.9605C27.3582 27.9605 26.8379 27.4479 26.8379 26.8154V22.3979C26.8379 21.7655 27.3582 21.2528 28 21.2528C28.6419 21.2528 29.1622 21.7655 29.1622 22.3979V26.8154C29.1621 27.4479 28.6418 27.9605 28 27.9605Z" fill="#632E1D"/>
<path d="M28 21.253C27.9954 21.253 27.9911 21.2536 27.9865 21.2537V27.9599C27.991 27.96 27.9954 27.9607 28 27.9607C28.6418 27.9607 29.1622 27.448 29.1622 26.8156V22.3981C29.1621 21.7656 28.6418 21.253 28 21.253Z" fill="#381308"/>
<path d="M28.5039 10.7823C28.2749 10.4068 27.723 10.4057 27.4925 10.7802L23.8065 16.7687C23.3946 17.4837 23.1781 18.1269 23.1781 18.949C23.1781 21.573 25.3369 23.7002 28 23.7002C30.6631 23.7002 32.8219 21.573 32.8219 18.949C32.8219 18.0836 32.5821 17.468 32.1282 16.7272L28.5039 10.7823Z" fill="#FF9000"/>
<path d="M28.5039 18.026C28.275 17.6505 27.723 17.6493 27.4925 18.0239L26.0165 20.4218C25.8218 20.76 25.7194 21.0642 25.7194 21.453C25.7194 22.694 26.7404 23.7001 28 23.7001C29.2595 23.7001 30.2806 22.694 30.2806 21.453C30.2806 21.0437 30.1671 20.7525 29.9524 20.4021L28.5039 18.026Z" fill="#FFDD33"/>
<path d="M28.5039 10.7817C28.3869 10.5898 28.1857 10.4963 27.986 10.5001V23.6991C27.9907 23.6991 27.9953 23.6995 27.9999 23.6995C30.663 23.6995 32.8219 21.5723 32.8219 18.9483C32.8219 18.0829 32.582 17.4673 32.1281 16.7264L28.5039 10.7817Z" fill="#FF4B00"/>
<path d="M28.5039 18.0253C28.387 17.8335 28.1857 17.74 27.986 17.7438V23.6992C27.9907 23.6992 27.9953 23.6995 28 23.6995C29.2595 23.6995 30.2806 22.6935 30.2806 21.4524C30.2806 21.0431 30.1671 20.7519 29.9524 20.4015L28.5039 18.0253Z" fill="#FFBB00"/>
<path d="M28.0009 39.469C24.2836 39.469 21.0516 40.7281 19.3954 42.5819C21.9673 43.7304 24.892 44.3333 27.9999 44.3333C31.1059 44.3333 34.031 43.7294 36.604 42.5792C34.9469 40.7269 31.7164 39.469 28.0009 39.469Z" fill="#FECFFF"/>
<path d="M28.001 39.469C27.9961 39.469 27.9914 39.4691 27.9865 39.4691V44.3332C27.991 44.3332 27.9955 44.3333 28 44.3333C31.106 44.3333 34.0311 43.7294 36.6041 42.5792C34.947 40.7269 31.7165 39.469 28.001 39.469Z" fill="#FFA3FF"/>
</g>
<defs>
<clipPath id="clip0_104_1607">
<rect width="37.3333" height="37.3333" fill="white" transform="translate(9.33333 9.33334)"/>
</clipPath>
</defs>
</svg>
