<svg width="56" height="56" viewBox="0 0 56 56" fill="none" xmlns="http://www.w3.org/2000/svg">
<rect width="56" height="56" fill="#003F73"/>
<g clip-path="url(#clip0_104_1591)">
<path d="M44.3333 25.7396C44.3333 16.6932 37.0062 9.33334 28 9.33334L25.0963 12.6146L28 15.8958C33.4037 15.8958 37.8 20.3117 37.8 25.7396C37.8 28.4283 36.7398 30.9401 34.8146 32.8127L32.1676 35.3896L36.7146 40.1021L39.3605 37.5262C42.5672 34.4072 44.3333 30.2213 44.3333 25.7396Z" fill="#57AEF7"/>
<path d="M11.6667 25.7396C11.6667 30.2211 13.4325 34.4068 16.6385 37.5252L19.2855 40.1021L23.8324 35.3896L21.1843 32.8117C19.2598 30.9399 18.2 28.4283 18.2 25.7396C18.2 20.3117 22.5963 15.8958 28 15.8958V9.33334C18.9938 9.33334 11.6667 16.6932 11.6667 25.7396Z" fill="#9ACFFA"/>
<path d="M19.2889 46.6667C22.8971 46.6667 25.8222 43.7285 25.8222 40.1042C25.8222 36.4798 22.8971 33.5417 19.2889 33.5417C15.6806 33.5417 12.7555 36.4798 12.7555 40.1042C12.7555 43.7285 15.6806 46.6667 19.2889 46.6667Z" fill="#EFF4F8"/>
<path d="M36.7111 46.6667C40.3194 46.6667 43.2444 43.7285 43.2444 40.1042C43.2444 36.4798 40.3194 33.5417 36.7111 33.5417C33.1028 33.5417 30.1778 36.4798 30.1778 40.1042C30.1778 43.7285 33.1028 46.6667 36.7111 46.6667Z" fill="#B4DBFB"/>
</g>
<defs>
<clipPath id="clip0_104_1591">
<rect width="37.3333" height="37.3333" fill="white" transform="translate(9.33333 9.33334)"/>
</clipPath>
</defs>
</svg>
