<svg width="56" height="56" viewBox="0 0 56 56" fill="none" xmlns="http://www.w3.org/2000/svg">
<rect width="56" height="56" fill="#753606"/>
<g clip-path="url(#clip0_104_1585)">
<path d="M28 46.6667C38.3093 46.6667 46.6667 38.3093 46.6667 28C46.6667 17.6907 38.3093 9.33334 28 9.33334C17.6907 9.33334 9.33334 17.6907 9.33334 28C9.33334 38.3093 17.6907 46.6667 28 46.6667Z" fill="#FFD59A"/>
<path d="M28 42.3256C35.9118 42.3256 42.3256 35.9118 42.3256 28C42.3256 20.0882 35.9118 13.6744 28 13.6744C20.0882 13.6744 13.6744 20.0882 13.6744 28C13.6744 35.9118 20.0882 42.3256 28 42.3256Z" fill="#BF6C0D"/>
<path d="M33.2092 34.5116C33.0381 34.5124 32.8685 34.479 32.7105 34.4134C32.5525 34.3478 32.4091 34.2513 32.2889 34.1296L27.0796 28.9203C26.8353 28.6763 26.6979 28.3452 26.6976 27.9999V19.3178C26.6976 18.9724 26.8348 18.6411 27.079 18.3969C27.3232 18.1527 27.6545 18.0154 27.9999 18.0154C28.3453 18.0154 28.6765 18.1527 28.9208 18.3969C29.165 18.6411 29.3022 18.9724 29.3022 19.3178V27.4617L34.1295 32.2889C34.3734 32.5331 34.5104 32.8641 34.5104 33.2092C34.5104 33.5544 34.3734 33.8854 34.1295 34.1296C34.0093 34.2513 33.8659 34.3478 33.7079 34.4134C33.5499 34.479 33.3803 34.5124 33.2092 34.5116Z" fill="#FFEACF"/>
</g>
<defs>
<clipPath id="clip0_104_1585">
<rect width="37.3333" height="37.3333" fill="white" transform="translate(9.33334 9.33334)"/>
</clipPath>
</defs>
</svg>
